<svg version="1.1" xmlns="http://www.w3.org/2000/svg" xmlns:xlink="http://www.w3.org/1999/xlink" width="714" height="614"><defs></defs><g><g transform="translate(5,5) scale(1,1)"><path fill="none" stroke="#000000" d="M 5 5 L 699 5 L 699 599 L 5 599 L 5 5" stroke-miterlimit="10"></path></g><g transform="translate(5,5) scale(1,1)"><path fill="#ffffff" stroke="none" d="M 5 5 L 5 27 L 194 27 L 205 16 L 205 5 L 5 5"></path></g><g transform="translate(5,5) scale(1,1)"><path fill="none" stroke="#000000" d="M 5 5 L 5 27 L 194 27 L 205 16 L 205 5 L 5 5 L 5 5" stroke-miterlimit="10"></path></g><g transform="translate(5,5) scale(1,1)"><g><path fill="none" stroke="none"></path><text fill="#000000" stroke="none" font-family="Arial" font-size="13px" font-style="normal" font-weight="normal" text-decoration="none" x="76" y="22.5">SequenceDiagram1</text></g></g><g transform="translate(5,5) scale(1,1)"><g><path fill="none" stroke="none"></path><text fill="#000000" stroke="none" font-family="Arial" font-size="13px" font-style="normal" font-weight="bold" text-decoration="none" x="10" y="22.5">interaction</text></g></g><g transform="translate(5,5) scale(1,1)"><rect fill="#C0C0C0" stroke="none" x="55" y="47" width="72" height="39" opacity="0.2"></rect></g><g transform="translate(5,5) scale(1,1)"><rect fill="#ffffff" stroke="none" x="48" y="40" width="72" height="39"></rect></g><g transform="translate(5,5) scale(1,1)"><path fill="none" stroke="#000000" d="M 48 40 L 120 40 L 120 79 L 48 79 L 48 40 Z Z" stroke-miterlimit="10"></path></g><g transform="translate(5,5) scale(1,1)"><g><path fill="none" stroke="none"></path><text fill="#000000" stroke="none" font-family="Arial" font-size="13px" font-style="normal" font-weight="bold" text-decoration="none" x="67.5" y="59.5">Client</text></g></g><g transform="translate(5,5) scale(1,1)"><path fill="none" stroke="#000000" d="M 85.5 80 L 85.5 576" stroke-miterlimit="10" stroke-dasharray="3"></path></g><g transform="translate(5,5) scale(1,1)"><rect fill="#C0C0C0" stroke="none" x="487" y="47" width="99" height="39" opacity="0.2"></rect></g><g transform="translate(5,5) scale(1,1)"><rect fill="#ffffff" stroke="none" x="480" y="40" width="99" height="39"></rect></g><g transform="translate(5,5) scale(1,1)"><path fill="none" stroke="#000000" d="M 480 40 L 579 40 L 579 79 L 480 79 L 480 40 Z Z" stroke-miterlimit="10"></path></g><g transform="translate(5,5) scale(1,1)"><g><path fill="none" stroke="none"></path><text fill="#000000" stroke="none" font-family="Arial" font-size="13px" font-style="normal" font-weight="bold" text-decoration="none" x="491.5" y="59.5">Access point</text></g></g><g transform="translate(5,5) scale(1,1)"><path fill="none" stroke="#000000" d="M 530.5 80 L 530.5 576" stroke-miterlimit="10" stroke-dasharray="3"></path></g><g transform="translate(5,5) scale(1,1)"><rect fill="#C0C0C0" stroke="none" x="175" y="47" width="131" height="39" opacity="0.2"></rect></g><g transform="translate(5,5) scale(1,1)"><rect fill="#ffffff" stroke="none" x="168" y="40" width="131" height="39"></rect></g><g transform="translate(5,5) scale(1,1)"><path fill="none" stroke="#000000" d="M 168 40 L 299 40 L 299 79 L 168 79 L 168 40 Z Z" stroke-miterlimit="10"></path></g><g transform="translate(5,5) scale(1,1)"><g><path fill="none" stroke="none"></path><text fill="#000000" stroke="none" font-family="Arial" font-size="13px" font-style="normal" font-weight="bold" text-decoration="none" x="182" y="59.5">Man in the middle</text></g></g><g transform="translate(5,5) scale(1,1)"><path fill="none" stroke="#000000" d="M 234.5 80 L 234.5 576" stroke-miterlimit="10" stroke-dasharray="3"></path></g><g transform="translate(5,5) scale(1,1)"><path fill="none" stroke="#000000" d="M 530 120 L 240 120" stroke-miterlimit="10"></path></g><g transform="translate(5,5) scale(1,1)"><path fill="#000000" stroke="none" d="M 250.16267485762415 115.79048224398402 L 240 120 L 250.16267485762415 124.20951775601598"></path></g><g transform="translate(5,5) scale(1,1)"><path fill="none" stroke="#000000" d="M 250.16267485762415 115.79048224398402 L 240 120 L 250.16267485762415 124.20951775601598 L 250.16267485762415 115.79048224398402" stroke-miterlimit="10"></path></g><g transform="translate(5,5) scale(1,1)"><g><path fill="none" stroke="none"></path><text fill="#000000" stroke="none" font-family="Arial" font-size="13px" font-style="normal" font-weight="normal" text-decoration="none" x="257.5" y="136.5">1 : Message 1(random number, counter, ...)</text></g></g><g transform="translate(5,5) scale(1,1)"><rect fill="#ffffff" stroke="none" x="227" y="120" width="13" height="120"></rect></g><g transform="translate(5,5) scale(1,1)"><path fill="none" stroke="#000000" d="M 227 120 L 240 120 L 240 240 L 227 240 L 227 120 Z Z" stroke-miterlimit="10"></path></g><g transform="translate(5,5) scale(1,1)"><path fill="none" stroke="#000000" d="M 227 184 L 91 184" stroke-miterlimit="10"></path></g><g transform="translate(5,5) scale(1,1)"><path fill="#000000" stroke="none" d="M 101.16267485762415 179.790482243984 L 91 184 L 101.16267485762415 188.209517756016"></path></g><g transform="translate(5,5) scale(1,1)"><path fill="none" stroke="#000000" d="M 101.16267485762415 179.790482243984 L 91 184 L 101.16267485762415 188.209517756016 L 101.16267485762415 179.790482243984" stroke-miterlimit="10"></path></g><g transform="translate(5,5) scale(1,1)"><g><path fill="none" stroke="none"></path><text fill="#000000" stroke="none" font-family="Arial" font-size="13px" font-style="normal" font-weight="normal" text-decoration="none" x="116.5" y="200.5">2 : Message 1</text></g></g><g transform="translate(5,5) scale(1,1)"><rect fill="#ffffff" stroke="none" x="78" y="184" width="13" height="56"></rect></g><g transform="translate(5,5) scale(1,1)"><path fill="none" stroke="#000000" d="M 78 184 L 91 184 L 91 240 L 78 240 L 78 184 Z Z" stroke-miterlimit="10"></path></g><g transform="translate(5,5) scale(1,1)"><path fill="none" stroke="#000000" d="M 91 232 L 227 232" stroke-miterlimit="10" stroke-dasharray="3"></path></g><g transform="translate(5,5) scale(1,1)"><path fill="none" stroke="#000000" d="M 216.83732514237585 236.209517756016 L 227 232 L 216.83732514237585 227.790482243984" stroke-miterlimit="10"></path></g><g transform="translate(5,5) scale(1,1)"><g><path fill="none" stroke="none"></path><text fill="#000000" stroke="none" font-family="Arial" font-size="13px" font-style="normal" font-weight="normal" text-decoration="none" x="117.5" y="228.5">3 : Message 2</text></g></g><g transform="translate(5,5) scale(1,1)"><path fill="none" stroke="#000000" d="M 240 233 L 530 233" stroke-miterlimit="10" stroke-dasharray="3"></path></g><g transform="translate(5,5) scale(1,1)"><path fill="none" stroke="#000000" d="M 519.8373251423759 237.209517756016 L 530 233 L 519.8373251423758 228.790482243984" stroke-miterlimit="10"></path></g><g transform="translate(5,5) scale(1,1)"><g><path fill="none" stroke="none"></path><text fill="#000000" stroke="none" font-family="Arial" font-size="13px" font-style="normal" font-weight="normal" text-decoration="none" x="343.5" y="229.5">4 : Message 2</text></g></g><g transform="translate(5,5) scale(1,1)"><path fill="none" stroke="#000000" d="M 530 280 L 240 280" stroke-miterlimit="10"></path></g><g transform="translate(5,5) scale(1,1)"><path fill="#000000" stroke="none" d="M 250.16267485762415 275.790482243984 L 240 280 L 250.16267485762415 284.209517756016"></path></g><g transform="translate(5,5) scale(1,1)"><path fill="none" stroke="#000000" d="M 250.16267485762415 275.790482243984 L 240 280 L 250.16267485762415 284.209517756016 L 250.16267485762415 275.790482243984" stroke-miterlimit="10"></path></g><g transform="translate(5,5) scale(1,1)"><g><path fill="none" stroke="none"></path><text fill="#000000" stroke="none" font-family="Arial" font-size="13px" font-style="normal" font-weight="normal" text-decoration="none" x="342.5" y="296.5">5 : Message 3</text></g></g><g transform="translate(5,5) scale(1,1)"><rect fill="#ffffff" stroke="none" x="227" y="280" width="13" height="32"></rect></g><g transform="translate(5,5) scale(1,1)"><path fill="none" stroke="#000000" d="M 227 280 L 240 280 L 240 312 L 227 312 L 227 280 Z Z" stroke-miterlimit="10"></path></g><g transform="translate(5,5) scale(1,1)"><path fill="none" stroke="#000000" d="M 234 320 L 91 320" stroke-miterlimit="10"></path></g><g transform="translate(5,5) scale(1,1)"><path fill="#000000" stroke="none" d="M 101.16267485762415 315.790482243984 L 91 320 L 101.16267485762415 324.209517756016"></path></g><g transform="translate(5,5) scale(1,1)"><path fill="none" stroke="#000000" d="M 101.16267485762415 315.790482243984 L 91 320 L 101.16267485762415 324.209517756016 L 101.16267485762415 315.790482243984" stroke-miterlimit="10"></path></g><g transform="translate(5,5) scale(1,1)"><g><path fill="none" stroke="none"></path><text fill="#000000" stroke="none" font-family="Arial" font-size="13px" font-style="normal" font-weight="normal" text-decoration="none" x="119.5" y="336.5">6 : Message 3</text></g></g><g transform="translate(5,5) scale(1,1)"><rect fill="#ffffff" stroke="none" x="78" y="320" width="13" height="56"></rect></g><g transform="translate(5,5) scale(1,1)"><path fill="none" stroke="#000000" d="M 78 320 L 91 320 L 91 376 L 78 376 L 78 320 Z Z" stroke-miterlimit="10"></path></g><g transform="translate(5,5) scale(1,1)"><path fill="none" stroke="#000000" d="M 85 376 L 234 376" stroke-miterlimit="10" stroke-dasharray="3"></path></g><g transform="translate(5,5) scale(1,1)"><path fill="none" stroke="#000000" d="M 223.83732514237585 380.209517756016 L 234 376 L 223.83732514237585 371.790482243984" stroke-miterlimit="10"></path></g><g transform="translate(5,5) scale(1,1)"><g><path fill="none" stroke="none"></path><text fill="#000000" stroke="none" font-family="Arial" font-size="13px" font-style="normal" font-weight="normal" text-decoration="none" x="117.5" y="372.5">7 : Message 4</text></g></g><g transform="translate(5,5) scale(1,1)"><path fill="none" stroke="#000000" d="M 234 400 L 91 400" stroke-miterlimit="10"></path></g><g transform="translate(5,5) scale(1,1)"><path fill="#000000" stroke="none" d="M 101.16267485762415 395.790482243984 L 91 400 L 101.16267485762415 404.209517756016"></path></g><g transform="translate(5,5) scale(1,1)"><path fill="none" stroke="#000000" d="M 101.16267485762415 395.790482243984 L 91 400 L 101.16267485762415 404.209517756016 L 101.16267485762415 395.790482243984" stroke-miterlimit="10"></path></g><g transform="translate(5,5) scale(1,1)"><g><path fill="none" stroke="none"></path><text fill="#000000" stroke="none" font-family="Arial" font-size="13px" font-style="normal" font-weight="normal" text-decoration="none" x="119" y="416.5">8 : Message 3</text></g></g><g transform="translate(5,5) scale(1,1)"><rect fill="#ffffff" stroke="none" x="78" y="400" width="13" height="48"></rect></g><g transform="translate(5,5) scale(1,1)"><path fill="none" stroke="#000000" d="M 78 400 L 91 400 L 91 448 L 78 448 L 78 400 Z Z" stroke-miterlimit="10"></path></g><g transform="translate(5,5) scale(1,1)"><path fill="none" stroke="#000000" d="M 85 448 L 234 448" stroke-miterlimit="10" stroke-dasharray="3"></path></g><g transform="translate(5,5) scale(1,1)"><path fill="none" stroke="#000000" d="M 223.83732514237585 452.209517756016 L 234 448 L 223.83732514237585 443.790482243984" stroke-miterlimit="10"></path></g><g transform="translate(5,5) scale(1,1)"><g><path fill="none" stroke="none"></path><text fill="#000000" stroke="none" font-family="Arial" font-size="13px" font-style="normal" font-weight="normal" text-decoration="none" x="117.5" y="444.5">9 : Message 4</text></g></g><g transform="translate(5,5) scale(1,1)"><path fill="none" stroke="#000000" d="M 234 467 L 91 467" stroke-miterlimit="10"></path></g><g transform="translate(5,5) scale(1,1)"><path fill="#000000" stroke="none" d="M 101.16267485762415 462.790482243984 L 91 467 L 101.16267485762415 471.209517756016"></path></g><g transform="translate(5,5) scale(1,1)"><path fill="none" stroke="#000000" d="M 101.16267485762415 462.790482243984 L 91 467 L 101.16267485762415 471.209517756016 L 101.16267485762415 462.790482243984" stroke-miterlimit="10"></path></g><g transform="translate(5,5) scale(1,1)"><g><path fill="none" stroke="none"></path><text fill="#000000" stroke="none" font-family="Arial" font-size="13px" font-style="normal" font-weight="normal" text-decoration="none" x="115.5" y="483.5">10 : Message 3</text></g></g><g transform="translate(5,5) scale(1,1)"><rect fill="#ffffff" stroke="none" x="78" y="467" width="13" height="45"></rect></g><g transform="translate(5,5) scale(1,1)"><path fill="none" stroke="#000000" d="M 78 467 L 91 467 L 91 512 L 78 512 L 78 467 Z Z" stroke-miterlimit="10"></path></g><g transform="translate(5,5) scale(1,1)"><path fill="none" stroke="#000000" d="M 85 512 L 234 512" stroke-miterlimit="10" stroke-dasharray="3"></path></g><g transform="translate(5,5) scale(1,1)"><path fill="none" stroke="#000000" d="M 223.83732514237585 516.209517756016 L 234 512 L 223.83732514237585 507.790482243984" stroke-miterlimit="10"></path></g><g transform="translate(5,5) scale(1,1)"><g><path fill="none" stroke="none"></path><text fill="#000000" stroke="none" font-family="Arial" font-size="13px" font-style="normal" font-weight="normal" text-decoration="none" x="113.5" y="508.5">11 : Message 4</text></g></g></g></svg>