<svg version="1.1" xmlns="http://www.w3.org/2000/svg" xmlns:xlink="http://www.w3.org/1999/xlink" width="714" height="614"><defs></defs><g><g transform="translate(5,5) scale(1,1)"><path fill="none" stroke="#000000" d="M 5 5 L 699 5 L 699 599 L 5 599 L 5 5" stroke-miterlimit="10"></path></g><g transform="translate(5,5) scale(1,1)"><path fill="#ffffff" stroke="none" d="M 5 5 L 5 27 L 194 27 L 205 16 L 205 5 L 5 5"></path></g><g transform="translate(5,5) scale(1,1)"><path fill="none" stroke="#000000" d="M 5 5 L 5 27 L 194 27 L 205 16 L 205 5 L 5 5 L 5 5" stroke-miterlimit="10"></path></g><g transform="translate(5,5) scale(1,1)"><g><path fill="none" stroke="none"></path><text fill="#000000" stroke="none" font-family="Arial" font-size="13px" font-style="normal" font-weight="normal" text-decoration="none" x="76" y="22.5">SequenceDiagram1</text></g></g><g transform="translate(5,5) scale(1,1)"><g><path fill="none" stroke="none"></path><text fill="#000000" stroke="none" font-family="Arial" font-size="13px" font-style="normal" font-weight="bold" text-decoration="none" x="10" y="22.5">interaction</text></g></g><g transform="translate(5,5) scale(1,1)"><rect fill="#C0C0C0" stroke="none" x="55" y="47" width="72" height="39" opacity="0.2"></rect></g><g transform="translate(5,5) scale(1,1)"><rect fill="#ffffff" stroke="none" x="48" y="40" width="72" height="39"></rect></g><g transform="translate(5,5) scale(1,1)"><path fill="none" stroke="#000000" d="M 48 40 L 120 40 L 120 79 L 48 79 L 48 40 Z Z" stroke-miterlimit="10"></path></g><g transform="translate(5,5) scale(1,1)"><g><path fill="none" stroke="none"></path><text fill="#000000" stroke="none" font-family="Arial" font-size="13px" font-style="normal" font-weight="bold" text-decoration="none" x="67.5" y="59.5">Client</text></g></g><g transform="translate(5,5) scale(1,1)"><path fill="none" stroke="#000000" d="M 85.5 80 L 85.5 376" stroke-miterlimit="10" stroke-dasharray="3"></path></g><g transform="translate(5,5) scale(1,1)"><rect fill="#C0C0C0" stroke="none" x="407" y="47" width="99" height="39" opacity="0.2"></rect></g><g transform="translate(5,5) scale(1,1)"><rect fill="#ffffff" stroke="none" x="400" y="40" width="99" height="39"></rect></g><g transform="translate(5,5) scale(1,1)"><path fill="none" stroke="#000000" d="M 400 40 L 499 40 L 499 79 L 400 79 L 400 40 Z Z" stroke-miterlimit="10"></path></g><g transform="translate(5,5) scale(1,1)"><g><path fill="none" stroke="none"></path><text fill="#000000" stroke="none" font-family="Arial" font-size="13px" font-style="normal" font-weight="bold" text-decoration="none" x="411.5" y="59.5">Access point</text></g></g><g transform="translate(5,5) scale(1,1)"><path fill="none" stroke="#000000" d="M 450.5 80 L 450.5 392" stroke-miterlimit="10" stroke-dasharray="3"></path></g><g transform="translate(5,5) scale(1,1)"><path fill="none" stroke="#000000" d="M 450 112 L 91 112" stroke-miterlimit="10"></path></g><g transform="translate(5,5) scale(1,1)"><path fill="#000000" stroke="none" d="M 101.16267485762415 107.79048224398402 L 91 112 L 101.16267485762415 116.20951775601598"></path></g><g transform="translate(5,5) scale(1,1)"><path fill="none" stroke="#000000" d="M 101.16267485762415 107.79048224398402 L 91 112 L 101.16267485762415 116.20951775601598 L 101.16267485762415 107.79048224398402" stroke-miterlimit="10"></path></g><g transform="translate(5,5) scale(1,1)"><g><path fill="none" stroke="none"></path><text fill="#000000" stroke="none" font-family="Arial" font-size="13px" font-style="normal" font-weight="normal" text-decoration="none" x="143" y="128.5">1 : Message 1(random number, counter, ...)</text></g></g><g transform="translate(5,5) scale(1,1)"><rect fill="#ffffff" stroke="none" x="78" y="112" width="13" height="56"></rect></g><g transform="translate(5,5) scale(1,1)"><path fill="none" stroke="#000000" d="M 78 112 L 91 112 L 91 168 L 78 168 L 78 112 Z Z" stroke-miterlimit="10"></path></g><g transform="translate(5,5) scale(1,1)"><path fill="none" stroke="#000000" d="M 91 160 L 450 160" stroke-miterlimit="10" stroke-dasharray="3"></path></g><g transform="translate(5,5) scale(1,1)"><path fill="none" stroke="#000000" d="M 439.83732514237585 164.209517756016 L 450 160 L 439.83732514237585 155.790482243984" stroke-miterlimit="10"></path></g><g transform="translate(5,5) scale(1,1)"><g><path fill="none" stroke="none"></path><text fill="#000000" stroke="none" font-family="Arial" font-size="13px" font-style="normal" font-weight="normal" text-decoration="none" x="228.5" y="156.5">2 : Message 2</text></g></g><g transform="translate(5,5) scale(1,1)"><path fill="none" stroke="#000000" d="M 450 200 L 91 200" stroke-miterlimit="10"></path></g><g transform="translate(5,5) scale(1,1)"><path fill="#000000" stroke="none" d="M 101.16267485762415 195.790482243984 L 91 200 L 101.16267485762415 204.209517756016"></path></g><g transform="translate(5,5) scale(1,1)"><path fill="none" stroke="#000000" d="M 101.16267485762415 195.790482243984 L 91 200 L 101.16267485762415 204.209517756016 L 101.16267485762415 195.790482243984" stroke-miterlimit="10"></path></g><g transform="translate(5,5) scale(1,1)"><g><path fill="none" stroke="none"></path><text fill="#000000" stroke="none" font-family="Arial" font-size="13px" font-style="normal" font-weight="normal" text-decoration="none" x="227" y="216.5">3 : Message 3</text></g></g><g transform="translate(5,5) scale(1,1)"><rect fill="#ffffff" stroke="none" x="78" y="200" width="13" height="64"></rect></g><g transform="translate(5,5) scale(1,1)"><path fill="none" stroke="#000000" d="M 78 200 L 91 200 L 91 264 L 78 264 L 78 200 Z Z" stroke-miterlimit="10"></path></g><g transform="translate(5,5) scale(1,1)"><path fill="none" stroke="#000000" d="M 91 257 L 450 257" stroke-miterlimit="10" stroke-dasharray="3"></path></g><g transform="translate(5,5) scale(1,1)"><path fill="none" stroke="#000000" d="M 439.83732514237585 261.209517756016 L 450 257 L 439.83732514237585 252.790482243984" stroke-miterlimit="10"></path></g><g transform="translate(5,5) scale(1,1)"><g><path fill="none" stroke="none"></path><text fill="#000000" stroke="none" font-family="Arial" font-size="13px" font-style="normal" font-weight="normal" text-decoration="none" x="228.5" y="253.5">4 : Message 4</text></g></g></g></svg>